<?xml version="1.0" encoding="utf-8"?>
<!-- Generator: Adobe Illustrator 21.1.0, SVG Export Plug-In . SVG Version: 6.00 Build 0)  -->
<svg version="1.1"
	 id="Layer_1" xmlns:cc="http://creativecommons.org/ns#" xmlns:dc="http://purl.org/dc/elements/1.1/" xmlns:rdf="http://www.w3.org/1999/02/22-rdf-syntax-ns#" xmlns:svg="http://www.w3.org/2000/svg"
	 xmlns="http://www.w3.org/2000/svg" xmlns:xlink="http://www.w3.org/1999/xlink" x="0px" y="0px" viewBox="0 0 544.2 544.9"
	 style="enable-background:new 0 0 544.2 544.9;" xml:space="preserve">
<style type="text/css">
	.st0{fill:#357CD5;stroke:#000000;stroke-width:0.9457;}
	.st1{fill:#9CDCFE;stroke:#000000;stroke-width:0.9457;}
	.st2{fill:#569CD6;stroke:#000000;stroke-width:0.9457;}
	.st3{fill:#0061C2;stroke:#000000;stroke-width:0.9457;}
	.st4{fill:none;stroke:#000000;stroke-width:18.9143;}
	.st5{fill:none;stroke:#000000;stroke-width:5.6743;}
	.st6{fill:#FEFEFE;stroke:#000000;stroke-width:0.9457;}
	.st7{fill:none;stroke:#000000;}
	.st8{fill:#808080;stroke:#000000;stroke-width:0.9457;}
	.st9{fill:#CCCCCC;stroke:#000000;}
	.st10{fill:#CCCCCC;stroke:#000000;stroke-width:8;stroke-miterlimit:10;}
	.st11{fill:#CCCCCC;stroke:#000000;stroke-miterlimit:10;}
</style>
<g id="layer1" transform="translate(-69.980994,-160.33288)">
	<g id="g3699" transform="matrix(1.532388,0,0,1.3939671,-54.912136,-41.792396)">
		<path id="path2836" class="st0" d="M260.5,170.7L106,340.8l153.9,169.4l154.5-170.1L260.5,170.7z"/>
		<path id="path2838" class="st1" d="M259.9,171.4v-14.9l-168,185H106L259.9,171.4z"/>
		<path id="path2840" class="st2" d="M259.5,171.4v-14.9l168,185h-14.2L259.5,171.4z"/>
		<path id="path2842" class="st3" d="M259.9,511.2v14.9l-168-185H106L259.9,511.2z"/>
		<path id="path3650" class="st4" d="M123,175.3h108.4l6.6,7.3v22.3l-5.2,7h-11.8v110.8l102-110.8H306l-5.9-7v-23.6l5.5-5.5h109.7
			l5.5,6v22.1L172.6,484h-28.2l-8.2-5.2V210.9h-13.7l-5-5.5v-23.6L123,175.3L123,175.3z"/>
		<path id="path2844" class="st3" d="M259.5,511.2v14.9l168-185h-14.2L259.5,511.2z"/>
		<path id="path2846" class="st5" d="M259.4,155.1L90.7,340.8l168,184.9L427.4,340L259.4,155.1z"/>
		<path id="path3640" class="st6" d="M232.5,186.6l6.1-3.5l-6.3-6.9H123l-5.6,6.1v23.1l6.2,6.8l2.9-6.8l-3.9-4.3v-16.3l2.9-2.8
			h104.3L232.5,186.6L232.5,186.6z"/>
		<path id="path3632" class="st7" d="M309.8,181.3l-3.9,4.2v15.6l3.4,3.7h17.9V220L209,351.8V205.1h19.6l4-4.4v-15.8l-3.7-3.2H125.6
			l-3.4,3.7v16.1l3.4,3.8h18v270.1l3.4,3.7h20.4L415,198v-12.4l-3.9-4.2H309.8z"/>
		<path id="path3646" class="st6" d="M143.5,204.9v270.6l3.2,4l-2.5,5.2l-7.1-7.7V211.9L143.5,204.9z"/>
		<path id="path3644" class="st8" d="M125.8,204.9l-1.8,6.5h13.2l7.3-6.5H125.8z"/>
		<path id="path3638" class="st6" d="M307.2,212.2l2.9-6.6l-4.2-4.3v-14.5l4.8-5.3h100.8l3.9,5.7l5.5-4.3l-5.6-6.2H306.9l-5.4,5.9
			V206l5.6,5.8 M219.5,323.7L209,351.8l118.8-131.1v-15.6L219.5,323.7L219.5,323.7z"/>
		<path id="path3642" class="st8" d="M232.3,185.8l5.2-3.8v22.8l-6,6.6h-11.7v112.4L209,351.7V204.9h19.6l3.6-3.3L232.3,185.8
			L232.3,185.8z"/>
		<path id="path3622" class="st9" d="M309.8,181.3l-3.9,4.2v15.6l3.4,3.7h17.9V220L209,351.8V205.1h19.6l4-4.4v-15.8l-3.7-3.2H125.6
			l-3.4,3.7v16.1l3.4,3.8h18v270.1l3.4,3.7h20.4L415,198v-12.4l-3.9-4.2H309.8z"/>
		<path id="path3636" class="st8" d="M415.4,185.9l5.5-3.5v21.9L171.5,484.9H145l2.5-5.5h20.3l247.2-281L415.4,185.9z"/>
		<path id="path3652" class="st8" d="M327.3,205.3l-5.6,6.4h-14.6l3.4-6.4C310.7,205.3,327.3,205.3,327.3,205.3z"/>
		<g id="g3673" transform="matrix(0.90138601,0,0,0.99222542,-92.530288,-192.23791)">
			<path id="path3671" class="st10" d="M399.8,560c-0.2,0-0.4,0.1-0.6,0.3l-5.3,4.6c-0.2,0.1-0.3,0.3-0.3,0.5l-5.3,14.9
				c-0.2,0.4-0.1,0.9,0.3,1.3l4.1,4.1c0.2,0.2,0.5,0.3,0.9,0.3h16.4c0.3,0,0.6-0.1,0.9-0.3l4.3-4.3c0.1-0.1,0.3-0.3,0.3-0.5
				l4.6-15.7c0.1-0.4,0-0.9-0.3-1.2l-3.5-3.5c-0.2-0.2-0.5-0.3-0.9-0.3H400C399.9,560,399.9,560,399.8,560z M369.7,601.9
				c-0.5,0.1-0.8,0.5-0.9,0.9l-2,8.1c-0.2,0.7,0.2,1.3,0.9,1.5c0.1,0,0.2,0,0.3,0h9.7l-23.9,68.3c-0.2,0.6,0.1,1.3,0.8,1.6
				c0.1,0,0.3,0.1,0.4,0.1h34.8c0.5,0,1-0.3,1.2-0.8l2.3-7.3c0.2-0.7-0.2-1.3-0.8-1.5c-0.1,0-0.2-0.1-0.4-0.1h-7.9l23.7-69.1
				c0.2-0.6-0.1-1.3-0.8-1.6c-0.1,0-0.3-0.1-0.4-0.1H370C369.9,601.9,369.8,601.9,369.7,601.9z M480.6,602.2
				c-0.3,0.1-0.5,0.2-0.7,0.4l-7.2,8.2h-11.5l-7.7-8c-0.2-0.2-0.5-0.4-0.9-0.4H425c-0.5,0-1,0.3-1.2,0.8l-2.5,7.6
				c-0.2,0.6,0.1,1.3,0.8,1.6c0.1,0,0.3,0.1,0.4,0.1h7.4L406.9,680c-0.2,0.6,0.1,1.3,0.8,1.6c0.1,0,0.3,0.1,0.4,0.1h29.3
				c0.5,0,1-0.3,1.2-0.8l2.2-6.6c0.2-0.6-0.1-1.3-0.8-1.6c-0.1,0-0.3-0.1-0.4-0.1h-5.1l14.6-46h26.5l-16.7,53.5
				c-0.2,0.7,0.2,1.3,0.8,1.5c0.1,0,0.2,0.1,0.4,0.1h28.3c0.5,0,0.9-0.3,1.1-0.8l2.5-6.1c0.3-0.6-0.1-1.3-0.7-1.6
				c-0.1-0.1-0.3-0.1-0.4-0.1h-5.1l14.9-46.8h25.2l-16.9,53.7c-0.2,0.7,0.2,1.3,0.8,1.5c0.1,0,0.2,0.1,0.4,0.1h31.1
				c0.5,0,1-0.3,1.2-0.8l2.5-6.6c0.2-0.6-0.1-1.3-0.7-1.6c-0.1,0-0.3-0.1-0.4-0.1h-6.2l18.7-60.8c0.1-0.4,0.1-0.8-0.2-1.1l-5.8-7.8
				c-0.2-0.3-0.6-0.5-1-0.5h-22.2c-0.3,0-0.7,0.1-0.9,0.4l-7,7.7h-12.2l-7.2-7.9c-0.2-0.2-0.6-0.4-0.9-0.4h-17.9
				C480.8,602.2,480.7,602.2,480.6,602.2z"/>
			<path id="path3665" class="st11" d="M400,561.2l-5.3,4.6l-5.3,14.9l4.1,4.1h16.4l4.3-4.3l4.6-15.7l-3.5-3.5H400z M370,603.2
				l-2,8.1h11.4l-24.5,70h34.8l2.3-7.3h-9.6l24.2-70.7H370z M480.8,603.4l-7.6,8.6h-12.6l-8.1-8.3H425l-2.5,7.6h9.1l-23.5,69.2h29.3
				l2.2-6.6h-6.8l15.4-48.5h29.1l-17.2,55.1h28.3l2.5-6.1h-6.8l15.7-49.2h27.8l-17.4,55.3h31.1l2.5-6.6h-7.8l19.2-62.4l-5.8-7.8
				h-22.2l-7.3,8.1h-13.4l-7.6-8.3H480.8z"/>
		</g>
	</g>
</g>
</svg>
